<?xml version="1.0" encoding="UTF-8" standalone="no"?>
<!DOCTYPE svg PUBLIC "-//W3C//DTD SVG 1.1//EN" "http://www.w3.org/Graphics/SVG/1.1/DTD/svg11.dtd">
<svg xmlns:dc="http://purl.org/dc/elements/1.1/" xmlns="http://www.w3.org/2000/svg" version="1.1" xmlns:xl="http://www.w3.org/1999/xlink" viewBox="-4318.875 1858.5 2019 1424" width="2019" height="1424">
  <defs>
    <filter id="Shadow" filterUnits="userSpaceOnUse" x="-4318.875" y="1858.5">
      <feGaussianBlur in="SourceAlpha" result="blur" stdDeviation="2.18"/>
      <feOffset in="blur" result="offset" dx="0" dy="2"/>
      <feFlood flood-color="black" flood-opacity=".5" result="flood"/>
      <feComposite in="flood" in2="offset" operator="in" result="color"/>
      <feMerge>
        <feMergeNode in="color"/>
        <feMergeNode in="SourceGraphic"/>
      </feMerge>
    </filter>
  </defs>
  <metadata> Produced by OmniGraffle 7.11.2 
    <dc:date>2021-02-21 04:33:29 +0000</dc:date>
  </metadata>
  <g id="Flows" stroke-dasharray="none" stroke="none" fill="none" fill-opacity="1" stroke-opacity="1">
    <title>Flows</title>
    <g id="Flows: Base">
      <title>Base</title>
      <g id="Graphic_60"/>
      <g id="Graphic_53" filter="url(#Shadow)">
        <path d="M -3770.7074 2545.5558 L -3619.4332 2629.387 C -3617.984 2630.19 -3617.4603 2632.016 -3618.2634 2633.465 C -3618.536 2633.957 -3618.9413 2634.3624 -3619.4332 2634.635 L -3770.7074 2718.466 C -3771.612 2718.9674 -3772.711 2718.9674 -3773.6157 2718.466 L -3924.89 2634.635 C -3926.339 2633.832 -3926.863 2632.006 -3926.06 2630.5568 C -3925.787 2630.065 -3925.382 2629.6596 -3924.89 2629.387 L -3773.6157 2545.5558 C -3772.711 2545.0545 -3771.612 2545.0545 -3770.7074 2545.5558 Z" fill="#004479"/>
        <path d="M -3770.7074 2545.5558 L -3619.4332 2629.387 C -3617.984 2630.19 -3617.4603 2632.016 -3618.2634 2633.465 C -3618.536 2633.957 -3618.9413 2634.3624 -3619.4332 2634.635 L -3770.7074 2718.466 C -3771.612 2718.9674 -3772.711 2718.9674 -3773.6157 2718.466 L -3924.89 2634.635 C -3926.339 2633.832 -3926.863 2632.006 -3926.06 2630.5568 C -3925.787 2630.065 -3925.382 2629.6596 -3924.89 2629.387 L -3773.6157 2545.5558 C -3772.711 2545.0545 -3771.612 2545.0545 -3770.7074 2545.5558 Z" stroke="#aaa" stroke-linecap="round" stroke-linejoin="round" stroke-width="1"/>
      </g>
      <g id="Graphic_54" filter="url(#Shadow)">
        <path d="M -3562.5824 2665.9308 L -3411.3082 2749.762 C -3409.859 2750.565 -3409.3353 2752.391 -3410.1384 2753.84 C -3410.411 2754.332 -3410.8163 2754.7374 -3411.3082 2755.01 L -3562.5824 2838.841 C -3563.487 2839.3424 -3564.586 2839.3424 -3565.4907 2838.841 L -3716.765 2755.01 C -3718.214 2754.207 -3718.738 2752.381 -3717.935 2750.9318 C -3717.662 2750.44 -3717.257 2750.0346 -3716.765 2749.762 L -3565.4907 2665.9308 C -3564.586 2665.4295 -3563.487 2665.4295 -3562.5824 2665.9308 Z" fill="#00acff"/>
        <path d="M -3562.5824 2665.9308 L -3411.3082 2749.762 C -3409.859 2750.565 -3409.3353 2752.391 -3410.1384 2753.84 C -3410.411 2754.332 -3410.8163 2754.7374 -3411.3082 2755.01 L -3562.5824 2838.841 C -3563.487 2839.3424 -3564.586 2839.3424 -3565.4907 2838.841 L -3716.765 2755.01 C -3718.214 2754.207 -3718.738 2752.381 -3717.935 2750.9318 C -3717.662 2750.44 -3717.257 2750.0346 -3716.765 2749.762 L -3565.4907 2665.9308 C -3564.586 2665.4295 -3563.487 2665.4295 -3562.5824 2665.9308 Z" stroke="#aaa" stroke-linecap="round" stroke-linejoin="round" stroke-width="1"/>
      </g>
      <g id="Line_55">
        <path d="M -3561.5092 2751.8698 L -3561.5092 2725.486 C -3561.5092 2722.98 -3562.8488 2720.6652 -3565.0215 2719.4167 L -3759.674 2607.557 C -3763.026 2605.6307 -3767.305 2606.7865 -3769.231 2610.1384 C -3769.7807 2611.0948 -3770.0965 2612.1675 -3770.1527 2613.2692 L -3771 2629.8595" stroke="white" stroke-linecap="round" stroke-linejoin="round" stroke-width="16"/>
      </g>
      <g id="Line_57">
        <path d="M -3569.5956 2753.7275 L -3570.344 2725.5665 C -3570.3533 2725.2177 -3570.5437 2724.899 -3570.8465 2724.7254 L -3760.813 2615.8914 C -3761.292 2615.6168 -3761.903 2615.7827 -3762.1776 2616.262 C -3762.2607 2616.407 -3762.306 2616.5706 -3762.3097 2616.7378 L -3762.6375 2632.1452" stroke="#666" stroke-linecap="round" stroke-linejoin="round" stroke-width="1"/>
      </g>
      <g id="Line_58">
        <path d="M -3569.5956 2753.8528 L -3569.4885 2754.1894 C -3568.2965 2757.9355 -3564.477 2760.185 -3560.6228 2759.411 L -3560.6228 2759.411 C -3556.6853 2758.62 -3553.8532 2755.16 -3553.856 2751.144 L -3553.876 2721.623 C -3553.878 2718.41 -3555.593 2715.442 -3558.3756 2713.8353 L -3755.55 2599.9827 C -3756.965 2599.1657 -3758.5757 2598.7493 -3760.2093 2598.778 L -3765.548 2598.8722 C -3767.775 2598.9115 -3769.9087 2599.7754 -3771.536 2601.2968 L -3774.593 2604.1554 C -3776.2883 2605.7402 -3777.3056 2607.9186 -3777.433 2610.2356 L -3778.4994 2629.642 C -3778.5843 2631.1885 -3778.269 2632.7307 -3777.5833 2634.1195 L -3777.4033 2634.4842 C -3776.6355 2636.0396 -3775.1542 2637.12 -3773.4386 2637.376 L -3770.4036 2637.829 C -3767.086 2638.324 -3763.9064 2636.3146 -3762.93 2633.1057 L -3762.6375 2632.1452" stroke="#666" stroke-linecap="round" stroke-linejoin="round" stroke-width="1"/>
      </g>
      <g id="Graphic_3680" filter="url(#Shadow)">
        <path d="M -3015.8324 2674.9308 L -2864.5582 2758.762 C -2863.109 2759.565 -2862.5853 2761.391 -2863.3884 2762.84 C -2863.661 2763.332 -2864.0663 2763.7374 -2864.5582 2764.01 L -3015.8324 2847.841 C -3016.737 2848.3424 -3017.836 2848.3424 -3018.7407 2847.841 L -3170.015 2764.01 C -3171.464 2763.207 -3171.988 2761.381 -3171.1848 2759.9318 C -3170.9122 2759.44 -3170.507 2759.0346 -3170.015 2758.762 L -3018.7407 2674.9308 C -3017.836 2674.4295 -3016.737 2674.4295 -3015.8324 2674.9308 Z" fill="white"/>
        <path d="M -3015.8324 2674.9308 L -2864.5582 2758.762 C -2863.109 2759.565 -2862.5853 2761.391 -2863.3884 2762.84 C -2863.661 2763.332 -2864.0663 2763.7374 -2864.5582 2764.01 L -3015.8324 2847.841 C -3016.737 2848.3424 -3017.836 2848.3424 -3018.7407 2847.841 L -3170.015 2764.01 C -3171.464 2763.207 -3171.988 2761.381 -3171.1848 2759.9318 C -3170.9122 2759.44 -3170.507 2759.0346 -3170.015 2758.762 L -3018.7407 2674.9308 C -3017.836 2674.4295 -3016.737 2674.4295 -3015.8324 2674.9308 Z" stroke="#aaa" stroke-linecap="round" stroke-linejoin="round" stroke-width="1"/>
      </g>
    </g>
  </g>
</svg>
