<?xml version="1.0" encoding="UTF-8" standalone="no"?>
<!DOCTYPE svg PUBLIC "-//W3C//DTD SVG 1.1//EN" "http://www.w3.org/Graphics/SVG/1.1/DTD/svg11.dtd">
<svg version="1.1" xmlns="http://www.w3.org/2000/svg" xmlns:xl="http://www.w3.org/1999/xlink" xmlns:dc="http://purl.org/dc/elements/1.1/" viewBox="-2517.3918 14955.666 1321.7199 587.1592" width="1321.7199" height="587.1592">
  <defs>
    <filter id="Shadow" filterUnits="userSpaceOnUse" x="-2517.3918" y="14955.666">
      <feGaussianBlur in="SourceAlpha" result="blur" stdDeviation="3.488"/>
      <feOffset in="blur" result="offset" dx="0" dy="2"/>
      <feFlood flood-color="black" flood-opacity=".5" result="flood"/>
      <feComposite in="flood" in2="offset" operator="in"/>
    </filter>
    <filter id="Shadow_2" filterUnits="userSpaceOnUse" x="-2517.3918" y="14955.666">
      <feGaussianBlur in="SourceAlpha" result="blur" stdDeviation="2.18"/>
      <feOffset in="blur" result="offset" dx="0" dy="2"/>
      <feFlood flood-color="black" flood-opacity=".5" result="flood"/>
      <feComposite in="flood" in2="offset" operator="in" result="color"/>
      <feMerge>
        <feMergeNode in="color"/>
        <feMergeNode in="SourceGraphic"/>
      </feMerge>
    </filter>
  </defs>
  <metadata> Produced by OmniGraffle 7.11.2 
    <dc:date>2021-02-22 01:41:55 +0000</dc:date>
  </metadata>
  <g id="Flows" stroke-dasharray="none" stroke-opacity="1" fill-opacity="1" fill="none" stroke="none">
    <title>Flows</title>
    <g id="Flows: Background">
      <title>Background</title>
      <g id="Graphic_4082_shadow" filter="url(#Shadow)">
        <path d="M -2411.503 15168.285 L -2422.4363 15194.84 L -2405.6864 15218.169 L -2394.7532 15191.613 Z" fill="white" fill-opacity=".031315556"/>
        <path d="M -2411.503 15168.285 L -2422.4363 15194.84 L -2405.6864 15218.169 L -2394.7532 15191.613 Z" stroke="#aaa" stroke-opacity=".06655987" stroke-linecap="round" stroke-linejoin="round" stroke-width=".5"/>
      </g>
      <g id="Graphic_4078_shadow" filter="url(#Shadow)">
        <path d="M -1825.801 15532.575 L -1811.0543 15507.931 L -1824.1634 15482.38 L -1838.9102 15507.023 Z" fill="white" fill-opacity=".031315556"/>
        <path d="M -1825.801 15532.575 L -1811.0543 15507.931 L -1824.1634 15482.38 L -1838.9102 15507.023 Z" stroke="#aaa" stroke-opacity=".06655987" stroke-linecap="round" stroke-linejoin="round" stroke-width=".5"/>
      </g>
      <g id="Graphic_4010_shadow" filter="url(#Shadow)">
        <path d="M -1332.5117 15348.067 L -1359.303 15358.41 L -1364.7005 15386.617 L -1337.9093 15376.274 Z" fill="white" fill-opacity=".031315556"/>
        <path d="M -1332.5117 15348.067 L -1359.303 15358.41 L -1364.7005 15386.617 L -1337.9093 15376.274 Z" stroke="#aaa" stroke-opacity=".06655987" stroke-linecap="round" stroke-linejoin="round" stroke-width=".5"/>
      </g>
      <g id="Group_4120">
        <g id="Group_4040">
          <g id="Graphic_4042" filter="url(#Shadow_2)">
            <path d="M -2475.2318 15479.526 L -2442.894 15491.738 C -2441.344 15492.324 -2440.562 15494.055 -2441.1473 15495.605 C -2441.2775 15495.95 -2441.4702 15496.267 -2441.7155 15496.542 L -2464.731 15522.333 C -2465.5572 15523.26 -2466.8683 15523.58 -2468.0292 15523.142 L -2500.367 15510.93 C -2501.917 15510.345 -2502.699 15508.614 -2502.1137 15507.064 C -2501.9835 15506.719 -2501.791 15506.4 -2501.5455 15506.126 L -2478.53 15480.335 C -2477.7038 15479.41 -2476.3928 15479.088 -2475.2318 15479.526 Z" fill="white" fill-opacity=".031315556"/>
            <path d="M -2475.2318 15479.526 L -2442.894 15491.738 C -2441.344 15492.324 -2440.562 15494.055 -2441.1473 15495.605 C -2441.2775 15495.95 -2441.4702 15496.267 -2441.7155 15496.542 L -2464.731 15522.333 C -2465.5572 15523.26 -2466.8683 15523.58 -2468.0292 15523.142 L -2500.367 15510.93 C -2501.917 15510.345 -2502.699 15508.614 -2502.1137 15507.064 C -2501.9835 15506.719 -2501.791 15506.4 -2501.5455 15506.126 L -2478.53 15480.335 C -2477.7038 15479.41 -2476.3928 15479.088 -2475.2318 15479.526 Z" stroke="#aaa" stroke-opacity=".06655987" stroke-linecap="round" stroke-linejoin="round" stroke-width="1"/>
          </g>
          <g id="Graphic_4041" filter="url(#Shadow_2)">
            <path d="M -2482.866 15448.405 L -2447.7886 15461.652 C -2446.2386 15462.237 -2445.4566 15463.968 -2446.042 15465.518 C -2446.1722 15465.863 -2446.3648 15466.181 -2446.6102 15466.456 L -2471.5754 15494.432 C -2472.4016 15495.358 -2473.7127 15495.68 -2474.8736 15495.24 L -2509.951 15481.994 C -2511.501 15481.408 -2512.283 15479.677 -2511.6975 15478.127 C -2511.5673 15477.783 -2511.3747 15477.465 -2511.1294 15477.19 L -2486.1642 15449.214 C -2485.338 15448.288 -2484.027 15447.967 -2482.866 15448.405 Z" fill="white" fill-opacity=".031315556"/>
            <path d="M -2482.866 15448.405 L -2447.7886 15461.652 C -2446.2386 15462.237 -2445.4566 15463.968 -2446.042 15465.518 C -2446.1722 15465.863 -2446.3648 15466.181 -2446.6102 15466.456 L -2471.5754 15494.432 C -2472.4016 15495.358 -2473.7127 15495.68 -2474.8736 15495.24 L -2509.951 15481.994 C -2511.501 15481.408 -2512.283 15479.677 -2511.6975 15478.127 C -2511.5673 15477.783 -2511.3747 15477.465 -2511.1294 15477.19 L -2486.1642 15449.214 C -2485.338 15448.288 -2484.027 15447.967 -2482.866 15448.405 Z" stroke="#aaa" stroke-opacity=".06655987" stroke-linecap="round" stroke-linejoin="round" stroke-width="1"/>
          </g>
        </g>
        <g id="Group_4009">
          <g id="Graphic_4012">
            <path d="M -1387.2795 15367.22 L -1382.3672 15338.374 L -1360.5122 15357.83 L -1365.4245 15386.676 Z" fill="white" fill-opacity=".031315556"/>
            <path d="M -1387.2795 15367.22 L -1382.3672 15338.374 L -1360.5122 15357.83 L -1365.4245 15386.676 Z" stroke="#aaa" stroke-opacity=".06655987" stroke-linecap="round" stroke-linejoin="round" stroke-width=".5"/>
          </g>
          <g id="Graphic_4011" filter="url(#Shadow_2)">
            <path d="M -1381.324 15338.757 L -1354.7034 15328.937 L -1333.2803 15347.542 L -1359.9009 15357.363 Z" fill="white" fill-opacity=".031315556"/>
            <path d="M -1381.324 15338.757 L -1354.7034 15328.937 L -1333.2803 15347.542 L -1359.9009 15357.363 Z" stroke="#aaa" stroke-opacity=".06655987" stroke-linecap="round" stroke-linejoin="round" stroke-width=".5"/>
          </g>
          <g id="Graphic_4010">
            <path d="M -1332.5117 15348.067 L -1359.303 15358.41 L -1364.7005 15386.617 L -1337.9093 15376.274 Z" fill="white" fill-opacity=".031315556"/>
            <path d="M -1332.5117 15348.067 L -1359.303 15358.41 L -1364.7005 15386.617 L -1337.9093 15376.274 Z" stroke="#aaa" stroke-opacity=".06655987" stroke-linecap="round" stroke-linejoin="round" stroke-width=".5"/>
          </g>
        </g>
        <g id="Group_4064">
          <g id="Graphic_4066" filter="url(#Shadow_2)">
            <path d="M -1292.1087 15102.397 L -1288.6334 15136.79 C -1288.4668 15138.438 -1289.6681 15139.91 -1291.3165 15140.076 C -1291.6832 15140.113 -1292.0536 15140.082 -1292.409 15139.985 L -1325.7532 15130.872 C -1326.9503 15130.544 -1327.8223 15129.514 -1327.9471 15128.28 L -1331.4224 15093.887 C -1331.589 15092.239 -1330.3877 15090.768 -1328.7392 15090.601 C -1328.3726 15090.564 -1328.0022 15090.595 -1327.6467 15090.692 L -1294.3026 15099.805 C -1293.1055 15100.132 -1292.2335 15101.163 -1292.1087 15102.397 Z" fill="white" fill-opacity=".031315556"/>
            <path d="M -1292.1087 15102.397 L -1288.6334 15136.79 C -1288.4668 15138.438 -1289.6681 15139.91 -1291.3165 15140.076 C -1291.6832 15140.113 -1292.0536 15140.082 -1292.409 15139.985 L -1325.7532 15130.872 C -1326.9503 15130.544 -1327.8223 15129.514 -1327.9471 15128.28 L -1331.4224 15093.887 C -1331.589 15092.239 -1330.3877 15090.768 -1328.7392 15090.601 C -1328.3726 15090.564 -1328.0022 15090.595 -1327.6467 15090.692 L -1294.3026 15099.805 C -1293.1055 15100.132 -1292.2335 15101.163 -1292.1087 15102.397 Z" stroke="#aaa" stroke-opacity=".06655987" stroke-linecap="round" stroke-linejoin="round" stroke-width="1"/>
          </g>
          <g id="Graphic_4065" filter="url(#Shadow_2)">
            <path d="M -1280.5317 15089.677 L -1276.762 15126.982 C -1276.5954 15128.63 -1277.7967 15130.102 -1279.4451 15130.268 C -1279.8118 15130.305 -1280.1821 15130.275 -1280.5376 15130.177 L -1316.7065 15120.292 C -1317.9035 15119.965 -1318.7756 15118.935 -1318.9004 15117.7 L -1322.6701 15080.395 C -1322.8367 15078.746 -1321.6354 15077.275 -1319.987 15077.108 C -1319.6203 15077.071 -1319.2499 15077.102 -1318.8944 15077.2 L -1282.7256 15087.084 C -1281.5285 15087.411 -1280.6564 15088.442 -1280.5317 15089.677 Z" fill="white" fill-opacity=".031315556"/>
            <path d="M -1280.5317 15089.677 L -1276.762 15126.982 C -1276.5954 15128.63 -1277.7967 15130.102 -1279.4451 15130.268 C -1279.8118 15130.305 -1280.1821 15130.275 -1280.5376 15130.177 L -1316.7065 15120.292 C -1317.9035 15119.965 -1318.7756 15118.935 -1318.9004 15117.7 L -1322.6701 15080.395 C -1322.8367 15078.746 -1321.6354 15077.275 -1319.987 15077.108 C -1319.6203 15077.071 -1319.2499 15077.102 -1318.8944 15077.2 L -1282.7256 15087.084 C -1281.5285 15087.411 -1280.6564 15088.442 -1280.5317 15089.677 Z" stroke="#aaa" stroke-opacity=".06655987" stroke-linecap="round" stroke-linejoin="round" stroke-width="1"/>
          </g>
        </g>
        <g id="Group_4077">
          <g id="Graphic_4080">
            <path d="M -1794.4283 15483.768 L -1780.5436 15509.525 L -1809.744 15507.645 L -1823.6287 15481.888 Z" fill="white" fill-opacity=".031315556"/>
            <path d="M -1794.4283 15483.768 L -1780.5436 15509.525 L -1809.744 15507.645 L -1823.6287 15481.888 Z" stroke="#aaa" stroke-opacity=".06655987" stroke-linecap="round" stroke-linejoin="round" stroke-width=".5"/>
          </g>
          <g id="Graphic_4079" filter="url(#Shadow_2)">
            <path d="M -1781.602 15509.865 L -1796.5362 15533.99 L -1824.8722 15532.515 L -1809.938 15508.39 Z" fill="white" fill-opacity=".031315556"/>
            <path d="M -1781.602 15509.865 L -1796.5362 15533.99 L -1824.8722 15532.515 L -1809.938 15508.39 Z" stroke="#aaa" stroke-opacity=".06655987" stroke-linecap="round" stroke-linejoin="round" stroke-width=".5"/>
          </g>
          <g id="Graphic_4078">
            <path d="M -1825.801 15532.575 L -1811.0543 15507.931 L -1824.1634 15482.38 L -1838.9102 15507.023 Z" fill="white" fill-opacity=".031315556"/>
            <path d="M -1825.801 15532.575 L -1811.0543 15507.931 L -1824.1634 15482.38 L -1838.9102 15507.023 Z" stroke="#aaa" stroke-opacity=".06655987" stroke-linecap="round" stroke-linejoin="round" stroke-width=".5"/>
          </g>
        </g>
        <g id="Group_4081">
          <g id="Graphic_4084">
            <path d="M -2435.2992 15221.2 L -2452.8464 15197.785 L -2423.6897 15195.319 L -2406.1425 15218.734 Z" fill="white" fill-opacity=".031315556"/>
            <path d="M -2435.2992 15221.2 L -2452.8464 15197.785 L -2423.6897 15195.319 L -2406.1425 15218.734 Z" stroke="#aaa" stroke-opacity=".06655987" stroke-linecap="round" stroke-linejoin="round" stroke-width=".5"/>
          </g>
          <g id="Graphic_4083" filter="url(#Shadow_2)">
            <path d="M -2451.85 15197.292 L -2440.6547 15171.22 L -2412.4128 15168.481 L -2423.6082 15194.554 Z" fill="white" fill-opacity=".031315556"/>
            <path d="M -2451.85 15197.292 L -2440.6547 15171.22 L -2412.4128 15168.481 L -2423.6082 15194.554 Z" stroke="#aaa" stroke-opacity=".06655987" stroke-linecap="round" stroke-linejoin="round" stroke-width=".5"/>
          </g>
          <g id="Graphic_4082">
            <path d="M -2411.503 15168.285 L -2422.4363 15194.84 L -2405.6864 15218.169 L -2394.7532 15191.613 Z" fill="white" fill-opacity=".031315556"/>
            <path d="M -2411.503 15168.285 L -2422.4363 15194.84 L -2405.6864 15218.169 L -2394.7532 15191.613 Z" stroke="#aaa" stroke-opacity=".06655987" stroke-linecap="round" stroke-linejoin="round" stroke-width=".5"/>
          </g>
        </g>
        <g id="Group_4119">
          <g id="Group_4086">
            <g id="Group_4005">
              <g id="Graphic_4007" filter="url(#Shadow_2)">
                <path d="M -2216.2044 15348.733 L -2156.0744 15388.036 C -2155.1498 15388.64 -2154.8902 15389.88 -2155.4945 15390.804 C -2155.6457 15391.035 -2155.843 15391.233 -2156.0744 15391.384 L -2216.2044 15430.687 C -2216.8692 15431.121 -2217.728 15431.121 -2218.393 15430.687 L -2278.523 15391.384 C -2279.4476 15390.78 -2279.7072 15389.54 -2279.1028 15388.615 C -2278.9517 15388.384 -2278.7542 15388.187 -2278.523 15388.036 L -2218.393 15348.733 C -2217.728 15348.298 -2216.8692 15348.298 -2216.2044 15348.733 Z" fill="white" fill-opacity=".031315556"/>
                <path d="M -2216.2044 15348.733 L -2156.0744 15388.036 C -2155.1498 15388.64 -2154.8902 15389.88 -2155.4945 15390.804 C -2155.6457 15391.035 -2155.843 15391.233 -2156.0744 15391.384 L -2216.2044 15430.687 C -2216.8692 15431.121 -2217.728 15431.121 -2218.393 15430.687 L -2278.523 15391.384 C -2279.4476 15390.78 -2279.7072 15389.54 -2279.1028 15388.615 C -2278.9517 15388.384 -2278.7542 15388.187 -2278.523 15388.036 L -2218.393 15348.733 C -2217.728 15348.298 -2216.8692 15348.298 -2216.2044 15348.733 Z" stroke="#aaa" stroke-opacity=".06655987" stroke-linecap="round" stroke-linejoin="round" stroke-width=".5"/>
              </g>
              <g id="Graphic_4006" filter="url(#Shadow_2)">
                <path d="M -2216.2044 15316.967 L -2151.5183 15359.248 C -2150.5937 15359.852 -2150.334 15361.092 -2150.9384 15362.016 C -2151.0896 15362.248 -2151.287 15362.445 -2151.5183 15362.596 L -2216.2044 15404.877 C -2216.8692 15405.312 -2217.728 15405.312 -2218.393 15404.877 L -2283.079 15362.596 C -2284.0037 15361.992 -2284.2633 15360.752 -2283.659 15359.828 C -2283.5078 15359.597 -2283.3104 15359.4 -2283.079 15359.248 L -2218.393 15316.967 C -2217.728 15316.533 -2216.8692 15316.533 -2216.2044 15316.967 Z" fill="white" fill-opacity=".031315556"/>
                <path d="M -2216.2044 15316.967 L -2151.5183 15359.248 C -2150.5937 15359.852 -2150.334 15361.092 -2150.9384 15362.016 C -2151.0896 15362.248 -2151.287 15362.445 -2151.5183 15362.596 L -2216.2044 15404.877 C -2216.8692 15405.312 -2217.728 15405.312 -2218.393 15404.877 L -2283.079 15362.596 C -2284.0037 15361.992 -2284.2633 15360.752 -2283.659 15359.828 C -2283.5078 15359.597 -2283.3104 15359.4 -2283.079 15359.248 L -2218.393 15316.967 C -2217.728 15316.533 -2216.8692 15316.533 -2216.2044 15316.967 Z" stroke="#aaa" stroke-opacity=".06655987" stroke-linecap="round" stroke-linejoin="round" stroke-width=".5"/>
              </g>
            </g>
            <g id="Graphic_4085" filter="url(#Shadow_2)">
              <path d="M -2216.2044 15290.63 L -2151.5183 15332.912 C -2150.5937 15333.516 -2150.334 15334.756 -2150.9384 15335.68 C -2151.0896 15335.911 -2151.287 15336.109 -2151.5183 15336.26 L -2216.2044 15378.541 C -2216.8692 15378.975 -2217.728 15378.975 -2218.393 15378.541 L -2283.079 15336.26 C -2284.0037 15335.656 -2284.2633 15334.416 -2283.659 15333.492 C -2283.5078 15333.26 -2283.3104 15333.063 -2283.079 15332.912 L -2218.393 15290.63 C -2217.728 15290.196 -2216.8692 15290.196 -2216.2044 15290.63 Z" fill="white" fill-opacity=".031315556"/>
              <path d="M -2216.2044 15290.63 L -2151.5183 15332.912 C -2150.5937 15333.516 -2150.334 15334.756 -2150.9384 15335.68 C -2151.0896 15335.911 -2151.287 15336.109 -2151.5183 15336.26 L -2216.2044 15378.541 C -2216.8692 15378.975 -2217.728 15378.975 -2218.393 15378.541 L -2283.079 15336.26 C -2284.0037 15335.656 -2284.2633 15334.416 -2283.659 15333.492 C -2283.5078 15333.26 -2283.3104 15333.063 -2283.079 15332.912 L -2218.393 15290.63 C -2217.728 15290.196 -2216.8692 15290.196 -2216.2044 15290.63 Z" stroke="#aaa" stroke-opacity=".06655987" stroke-linecap="round" stroke-linejoin="round" stroke-width=".5"/>
            </g>
          </g>
          <g id="Group_4118">
            <g id="Line_4087">
              <line x1="-2217.541" y1="15379.379" x2="-2217.2968" y2="15405.387" stroke="#aaa" stroke-opacity=".06655987" stroke-linecap="round" stroke-linejoin="round" stroke-width=".25"/>
            </g>
            <g id="Line_4088">
              <line x1="-2217.2968" y1="15405.387" x2="-2217.4332" y2="15431.057" stroke="#aaa" stroke-opacity=".06655987" stroke-linecap="round" stroke-linejoin="round" stroke-width=".25"/>
            </g>
            <g id="Line_4089">
              <line x1="-2150.728" y1="15334.535" x2="-2150.728" y2="15360.468" stroke="#aaa" stroke-opacity=".06655987" stroke-linecap="round" stroke-linejoin="round" stroke-width=".25"/>
            </g>
            <g id="Line_4090">
              <line x1="-2284.0037" y1="15334.535" x2="-2284.0037" y2="15360.468" stroke="#aaa" stroke-opacity=".06655987" stroke-linecap="round" stroke-linejoin="round" stroke-width=".25"/>
            </g>
          </g>
        </g>
        <g id="Group_4093">
          <g id="Group_4054">
            <g id="Graphic_4056" filter="url(#Shadow_2)">
              <path d="M -2183.5133 15043.953 L -2144.676 15045.066 C -2144.124 15045.081 -2143.6892 15045.542 -2143.705 15046.094 C -2143.7085 15046.217 -2143.7347 15046.338 -2143.782 15046.451 L -2158.7743 15082.295 C -2158.934 15082.677 -2159.312 15082.92 -2159.7255 15082.909 L -2198.5628 15081.796 C -2199.115 15081.78 -2199.5496 15081.32 -2199.5338 15080.768 C -2199.5302 15080.645 -2199.504 15080.524 -2199.4567 15080.41 L -2184.4645 15044.566 C -2184.3048 15044.185 -2183.9267 15043.94 -2183.5133 15043.953 Z" fill="white" fill-opacity=".031315556"/>
              <path d="M -2183.5133 15043.953 L -2144.676 15045.066 C -2144.124 15045.081 -2143.6892 15045.542 -2143.705 15046.094 C -2143.7085 15046.217 -2143.7347 15046.338 -2143.782 15046.451 L -2158.7743 15082.295 C -2158.934 15082.677 -2159.312 15082.92 -2159.7255 15082.909 L -2198.5628 15081.796 C -2199.115 15081.78 -2199.5496 15081.32 -2199.5338 15080.768 C -2199.5302 15080.645 -2199.504 15080.524 -2199.4567 15080.41 L -2184.4645 15044.566 C -2184.3048 15044.185 -2183.9267 15043.94 -2183.5133 15043.953 Z" stroke="#aaa" stroke-opacity=".06655987" stroke-linecap="round" stroke-linejoin="round" stroke-width="1"/>
            </g>
            <g id="Graphic_4055" filter="url(#Shadow_2)">
              <path d="M -2193.4198 15032.002 L -2151.6554 15033.199 C -2151.1034 15033.215 -2150.6687 15033.675 -2150.6845 15034.227 C -2150.688 15034.35 -2150.7141 15034.471 -2150.7615 15034.584 L -2166.8838 15073.13 C -2167.0434 15073.512 -2167.4215 15073.756 -2167.835 15073.744 L -2209.5994 15072.547 C -2210.1514 15072.531 -2210.586 15072.07 -2210.5703 15071.519 C -2210.5668 15071.396 -2210.5407 15071.275 -2210.4933 15071.161 L -2194.371 15032.616 C -2194.2114 15032.234 -2193.8333 15031.99 -2193.4198 15032.002 Z" fill="white" fill-opacity=".031315556"/>
              <path d="M -2193.4198 15032.002 L -2151.6554 15033.199 C -2151.1034 15033.215 -2150.6687 15033.675 -2150.6845 15034.227 C -2150.688 15034.35 -2150.7141 15034.471 -2150.7615 15034.584 L -2166.8838 15073.13 C -2167.0434 15073.512 -2167.4215 15073.756 -2167.835 15073.744 L -2209.5994 15072.547 C -2210.1514 15072.531 -2210.586 15072.07 -2210.5703 15071.519 C -2210.5668 15071.396 -2210.5407 15071.275 -2210.4933 15071.161 L -2194.371 15032.616 C -2194.2114 15032.234 -2193.8333 15031.99 -2193.4198 15032.002 Z" stroke="#aaa" stroke-opacity=".06655987" stroke-linecap="round" stroke-linejoin="round" stroke-width="1"/>
            </g>
          </g>
          <g id="Line_4091">
            <line x1="-2167.3125" y1="15073.486" x2="-2158.984" y2="15082.828" stroke="#aaa" stroke-opacity=".06655987" stroke-linecap="round" stroke-linejoin="round" stroke-width=".5"/>
          </g>
        </g>
        <g id="Group_4094">
          <g id="Group_4096">
            <g id="Graphic_4098" filter="url(#Shadow_2)">
              <path d="M -1525.1403 15000.526 L -1544.8612 14967.05 C -1545.1415 14966.574 -1544.983 14965.961 -1544.5071 14965.68 C -1544.4013 14965.618 -1544.2849 14965.576 -1544.1637 14965.556 L -1505.8373 14959.18 C -1505.4292 14959.111 -1505.0215 14959.302 -1504.8115 14959.658 L -1485.0907 14993.134 C -1484.8104 14993.61 -1484.9689 14994.223 -1485.4448 14994.504 C -1485.5506 14994.566 -1485.667 14994.608 -1485.7882 14994.628 L -1524.1146 15001.005 C -1524.5227 15001.073 -1524.9304 15000.883 -1525.1403 15000.526 Z" fill="white" fill-opacity=".031315556"/>
              <path d="M -1525.1403 15000.526 L -1544.8612 14967.05 C -1545.1415 14966.574 -1544.983 14965.961 -1544.5071 14965.68 C -1544.4013 14965.618 -1544.2849 14965.576 -1544.1637 14965.556 L -1505.8373 14959.18 C -1505.4292 14959.111 -1505.0215 14959.302 -1504.8115 14959.658 L -1485.0907 14993.134 C -1484.8104 14993.61 -1484.9689 14994.223 -1485.4448 14994.504 C -1485.5506 14994.566 -1485.667 14994.608 -1485.7882 14994.628 L -1524.1146 15001.005 C -1524.5227 15001.073 -1524.9304 15000.883 -1525.1403 15000.526 Z" stroke="#aaa" stroke-opacity=".06655987" stroke-linecap="round" stroke-linejoin="round" stroke-width="1"/>
            </g>
            <g id="Graphic_4097" filter="url(#Shadow_2)">
              <path d="M -1529.9883 15015.273 L -1551.1955 14979.273 C -1551.4758 14978.797 -1551.3173 14978.184 -1550.8414 14977.904 C -1550.7356 14977.842 -1550.6192 14977.8 -1550.498 14977.78 L -1509.283 14970.922 C -1508.875 14970.854 -1508.4672 14971.044 -1508.2573 14971.4 L -1487.0501 15007.4 C -1486.7698 15007.876 -1486.9283 15008.489 -1487.4041 15008.77 C -1487.51 15008.832 -1487.6264 15008.874 -1487.7476 15008.894 L -1528.9626 15015.751 C -1529.3706 15015.82 -1529.7784 15015.629 -1529.9883 15015.273 Z" fill="white" fill-opacity=".031315556"/>
              <path d="M -1529.9883 15015.273 L -1551.1955 14979.273 C -1551.4758 14978.797 -1551.3173 14978.184 -1550.8414 14977.904 C -1550.7356 14977.842 -1550.6192 14977.8 -1550.498 14977.78 L -1509.283 14970.922 C -1508.875 14970.854 -1508.4672 14971.044 -1508.2573 14971.4 L -1487.0501 15007.4 C -1486.7698 15007.876 -1486.9283 15008.489 -1487.4041 15008.77 C -1487.51 15008.832 -1487.6264 15008.874 -1487.7476 15008.894 L -1528.9626 15015.751 C -1529.3706 15015.82 -1529.7784 15015.629 -1529.9883 15015.273 Z" stroke="#aaa" stroke-opacity=".06655987" stroke-linecap="round" stroke-linejoin="round" stroke-width="1"/>
            </g>
          </g>
          <g id="Line_4095">
            <line x1="-1508.7539" y1="14971.096" x2="-1505.2742" y2="14959.073" stroke="#aaa" stroke-opacity=".06655987" stroke-linecap="round" stroke-linejoin="round" stroke-width=".5"/>
          </g>
        </g>
        <g id="Group_4099">
          <g id="Group_4101">
            <g id="Graphic_4103" filter="url(#Shadow_2)">
              <path d="M -2339.7276 14995.63 L -2331.3475 15027.127 C -2331.0635 15028.194 -2331.6986 15029.29 -2332.766 15029.574 C -2333.033 15029.645 -2333.312 15029.66 -2333.585 15029.618 L -2365.798 15024.653 C -2366.583 15024.532 -2367.222 15023.958 -2367.426 15023.19 L -2375.8061 14991.693 C -2376.09 14990.625 -2375.455 14989.53 -2374.3876 14989.246 C -2374.1206 14989.175 -2373.8418 14989.16 -2373.5687 14989.202 L -2341.3557 14994.167 C -2340.5708 14994.288 -2339.9318 14994.862 -2339.7276 14995.63 Z" fill="white" fill-opacity=".031315556"/>
              <path d="M -2339.7276 14995.63 L -2331.3475 15027.127 C -2331.0635 15028.194 -2331.6986 15029.29 -2332.766 15029.574 C -2333.033 15029.645 -2333.312 15029.66 -2333.585 15029.618 L -2365.798 15024.653 C -2366.583 15024.532 -2367.222 15023.958 -2367.426 15023.19 L -2375.8061 14991.693 C -2376.09 14990.625 -2375.455 14989.53 -2374.3876 14989.246 C -2374.1206 14989.175 -2373.8418 14989.16 -2373.5687 14989.202 L -2341.3557 14994.167 C -2340.5708 14994.288 -2339.9318 14994.862 -2339.7276 14995.63 Z" stroke="#aaa" stroke-opacity=".06655987" stroke-linecap="round" stroke-linejoin="round" stroke-width=".5"/>
            </g>
            <g id="Graphic_4102" filter="url(#Shadow_2)">
              <path d="M -2329.4318 14984.167 L -2320.373 15018.216 C -2320.089 15019.283 -2320.724 15020.379 -2321.7915 15020.663 C -2322.0585 15020.734 -2322.3374 15020.749 -2322.6104 15020.707 L -2357.4327 15015.34 C -2358.2176 15015.219 -2358.8566 15014.645 -2359.0608 15013.878 L -2368.1196 14979.829 C -2368.4036 14978.761 -2367.7685 14977.666 -2366.701 14977.382 C -2366.434 14977.31 -2366.1553 14977.296 -2365.8822 14977.338 L -2331.06 14982.705 C -2330.275 14982.826 -2329.636 14983.4 -2329.4318 14984.167 Z" fill="white" fill-opacity=".031315556"/>
              <path d="M -2329.4318 14984.167 L -2320.373 15018.216 C -2320.089 15019.283 -2320.724 15020.379 -2321.7915 15020.663 C -2322.0585 15020.734 -2322.3374 15020.749 -2322.6104 15020.707 L -2357.4327 15015.34 C -2358.2176 15015.219 -2358.8566 15014.645 -2359.0608 15013.878 L -2368.1196 14979.829 C -2368.4036 14978.761 -2367.7685 14977.666 -2366.701 14977.382 C -2366.434 14977.31 -2366.1553 14977.296 -2365.8822 14977.338 L -2331.06 14982.705 C -2330.275 14982.826 -2329.636 14983.4 -2329.4318 14984.167 Z" stroke="#aaa" stroke-opacity=".06655987" stroke-linecap="round" stroke-linejoin="round" stroke-width=".5"/>
            </g>
          </g>
          <g id="Graphic_4100" filter="url(#Shadow_2)">
            <path d="M -2320.8958 14974.664 L -2311.837 15008.713 C -2311.553 15009.78 -2312.188 15010.876 -2313.2555 15011.16 C -2313.5225 15011.231 -2313.8013 15011.246 -2314.0744 15011.204 L -2348.8967 15005.837 C -2349.6816 15005.716 -2350.3206 15005.142 -2350.5248 15004.375 L -2359.5836 14970.326 C -2359.8676 14969.258 -2359.2325 14968.163 -2358.165 14967.879 C -2357.898 14967.808 -2357.6193 14967.793 -2357.3462 14967.835 L -2322.524 14973.202 C -2321.739 14973.322 -2321.1 14973.896 -2320.8958 14974.664 Z" fill="white" fill-opacity=".031315556"/>
            <path d="M -2320.8958 14974.664 L -2311.837 15008.713 C -2311.553 15009.78 -2312.188 15010.876 -2313.2555 15011.16 C -2313.5225 15011.231 -2313.8013 15011.246 -2314.0744 15011.204 L -2348.8967 15005.837 C -2349.6816 15005.716 -2350.3206 15005.142 -2350.5248 15004.375 L -2359.5836 14970.326 C -2359.8676 14969.258 -2359.2325 14968.163 -2358.165 14967.879 C -2357.898 14967.808 -2357.6193 14967.793 -2357.3462 14967.835 L -2322.524 14973.202 C -2321.739 14973.322 -2321.1 14973.896 -2320.8958 14974.664 Z" stroke="#aaa" stroke-opacity=".06655987" stroke-linecap="round" stroke-linejoin="round" stroke-width=".5"/>
          </g>
        </g>
        <g id="Group_4113">
          <g id="Group_4115">
            <g id="Graphic_4117" filter="url(#Shadow_2)">
              <path d="M -1234.7918 15481.22 L -1205.7678 15466.39 C -1204.7842 15465.888 -1203.5794 15466.277 -1203.0768 15467.261 C -1202.9511 15467.507 -1202.8777 15467.776 -1202.8613 15468.052 L -1200.9255 15500.588 C -1200.8783 15501.381 -1201.3047 15502.127 -1202.0119 15502.488 L -1231.036 15517.318 C -1232.0196 15517.82 -1233.2244 15517.43 -1233.727 15516.447 C -1233.8527 15516.201 -1233.926 15515.932 -1233.9425 15515.656 L -1235.8783 15483.12 C -1235.9255 15482.327 -1235.4991 15481.582 -1234.7918 15481.22 Z" fill="white" fill-opacity=".031315556"/>
              <path d="M -1234.7918 15481.22 L -1205.7678 15466.39 C -1204.7842 15465.888 -1203.5794 15466.277 -1203.0768 15467.261 C -1202.9511 15467.507 -1202.8777 15467.776 -1202.8613 15468.052 L -1200.9255 15500.588 C -1200.8783 15501.381 -1201.3047 15502.127 -1202.0119 15502.488 L -1231.036 15517.318 C -1232.0196 15517.82 -1233.2244 15517.43 -1233.727 15516.447 C -1233.8527 15516.201 -1233.926 15515.932 -1233.9425 15515.656 L -1235.8783 15483.12 C -1235.9255 15482.327 -1235.4991 15481.582 -1234.7918 15481.22 Z" stroke="#aaa" stroke-opacity=".06655987" stroke-linecap="round" stroke-linejoin="round" stroke-width=".5"/>
            </g>
            <g id="Graphic_4116" filter="url(#Shadow_2)">
              <path d="M -1248.1664 15473.571 L -1216.7914 15457.54 C -1215.8078 15457.037 -1214.603 15457.427 -1214.1004 15458.411 C -1213.9747 15458.657 -1213.9013 15458.926 -1213.8849 15459.202 L -1211.7923 15494.373 C -1211.7451 15495.166 -1212.1715 15495.912 -1212.8787 15496.273 L -1244.2537 15512.305 C -1245.2373 15512.807 -1246.4421 15512.417 -1246.9447 15511.434 C -1247.0704 15511.188 -1247.1438 15510.918 -1247.1602 15510.642 L -1249.2528 15475.471 C -1249.3 15474.678 -1248.8736 15473.933 -1248.1664 15473.571 Z" fill="white" fill-opacity=".031315556"/>
              <path d="M -1248.1664 15473.571 L -1216.7914 15457.54 C -1215.8078 15457.037 -1214.603 15457.427 -1214.1004 15458.411 C -1213.9747 15458.657 -1213.9013 15458.926 -1213.8849 15459.202 L -1211.7923 15494.373 C -1211.7451 15495.166 -1212.1715 15495.912 -1212.8787 15496.273 L -1244.2537 15512.305 C -1245.2373 15512.807 -1246.4421 15512.417 -1246.9447 15511.434 C -1247.0704 15511.188 -1247.1438 15510.918 -1247.1602 15510.642 L -1249.2528 15475.471 C -1249.3 15474.678 -1248.8736 15473.933 -1248.1664 15473.571 Z" stroke="#aaa" stroke-opacity=".06655987" stroke-linecap="round" stroke-linejoin="round" stroke-width=".5"/>
            </g>
          </g>
          <g id="Graphic_4114" filter="url(#Shadow_2)">
            <path d="M -1259.255 15467.23 L -1227.88 15451.199 C -1226.8964 15450.696 -1225.6916 15451.086 -1225.189 15452.07 C -1225.0633 15452.316 -1224.9899 15452.585 -1224.9735 15452.86 L -1222.8809 15488.032 C -1222.8337 15488.825 -1223.2601 15489.57 -1223.9673 15489.932 L -1255.3423 15505.963 C -1256.326 15506.466 -1257.5307 15506.076 -1258.0333 15505.092 C -1258.159 15504.846 -1258.2324 15504.577 -1258.2488 15504.3 L -1260.3414 15469.13 C -1260.3886 15468.337 -1259.9622 15467.591 -1259.255 15467.23 Z" fill="white" fill-opacity=".031315556"/>
            <path d="M -1259.255 15467.23 L -1227.88 15451.199 C -1226.8964 15450.696 -1225.6916 15451.086 -1225.189 15452.07 C -1225.0633 15452.316 -1224.9899 15452.585 -1224.9735 15452.86 L -1222.8809 15488.032 C -1222.8337 15488.825 -1223.2601 15489.57 -1223.9673 15489.932 L -1255.3423 15505.963 C -1256.326 15506.466 -1257.5307 15506.076 -1258.0333 15505.092 C -1258.159 15504.846 -1258.2324 15504.577 -1258.2488 15504.3 L -1260.3414 15469.13 C -1260.3886 15468.337 -1259.9622 15467.591 -1259.255 15467.23 Z" stroke="#aaa" stroke-opacity=".06655987" stroke-linecap="round" stroke-linejoin="round" stroke-width=".5"/>
          </g>
        </g>
      </g>
    </g>
  </g>
</svg>
